<svg width="25" height="25" viewBox="0 0 25 25" fill="none" xmlns="http://www.w3.org/2000/svg">
<path d="M12.0703 2.75C6.56031 2.75 2.07031 7.24 2.07031 12.75C2.07031 18.26 6.56031 22.75 12.0703 22.75C17.5803 22.75 22.0703 18.26 22.0703 12.75C22.0703 7.24 17.5803 2.75 12.0703 2.75ZM16.4203 16.32C16.2803 16.56 16.0303 16.69 15.7703 16.69C15.6403 16.69 15.5103 16.66 15.3903 16.58L12.2903 14.73C11.5203 14.27 10.9503 13.26 10.9503 12.37V8.27C10.9503 7.86 11.2903 7.52 11.7003 7.52C12.1103 7.52 12.4503 7.86 12.4503 8.27V12.37C12.4503 12.73 12.7503 13.26 13.0603 13.44L16.1603 15.29C16.5203 15.5 16.6403 15.96 16.4203 16.32Z" fill="#582FFF"/>
</svg>
