<svg width="25" height="25" viewBox="0 0 25 25" fill="none" xmlns="http://www.w3.org/2000/svg">
<path d="M22.2703 7.6999C21.6303 5.5299 19.8203 3.7199 17.6503 3.0799C16.0003 2.5999 14.8603 2.6399 14.0703 3.2299C13.1203 3.9399 13.0103 5.2199 13.0103 6.1299V8.6199C13.0103 11.0799 14.1303 12.3299 16.3303 12.3299H19.2003C20.1003 12.3299 21.3903 12.2199 22.1003 11.2699C22.7103 10.4899 22.7603 9.3499 22.2703 7.6999Z" fill="#582FFF"/>
<path d="M19.51 14.1099C19.25 13.8099 18.87 13.6399 18.48 13.6399H14.9C13.14 13.6399 11.71 12.2099 11.71 10.4499V6.86991C11.71 6.47991 11.54 6.09991 11.24 5.83991C10.95 5.57991 10.55 5.45991 10.17 5.50991C7.82 5.80991 5.66 7.09991 4.25 9.03991C2.83 10.9899 2.31 13.3699 2.76 15.7499C3.41 19.1899 6.16 21.9399 9.61 22.5899C10.16 22.6999 10.71 22.7499 11.26 22.7499C13.07 22.7499 14.82 22.1899 16.31 21.0999C18.25 19.6899 19.54 17.5299 19.84 15.1799C19.89 14.7899 19.77 14.3999 19.51 14.1099Z" fill="#582FFF"/>
</svg>
