<svg width="24" height="25" viewBox="0 0 24 25" fill="none" xmlns="http://www.w3.org/2000/svg">
<path d="M20.0402 7.56994L14.2802 3.53994C12.7102 2.43994 10.3002 2.49994 8.79023 3.66994L3.78023 7.57994C2.78023 8.35994 1.99023 9.95994 1.99023 11.2199V18.1199C1.99023 20.6699 4.06023 22.7499 6.61023 22.7499H17.3902C19.9402 22.7499 22.0102 20.6799 22.0102 18.1299V11.3499C22.0102 9.99994 21.1402 8.33994 20.0402 7.56994ZM12.7502 18.7499C12.7502 19.1599 12.4102 19.4999 12.0002 19.4999C11.5902 19.4999 11.2502 19.1599 11.2502 18.7499V15.7499C11.2502 15.3399 11.5902 14.9999 12.0002 14.9999C12.4102 14.9999 12.7502 15.3399 12.7502 15.7499V18.7499Z" fill="#582FFF"/>
</svg>
