<svg width="27" height="26" viewBox="0 0 27 26" fill="none" xmlns="http://www.w3.org/2000/svg">
<path d="M9.28127 19.5H17.7188V21.125H9.28127V19.5ZM10.9688 22.75H16.0313V24.375H10.9688V22.75ZM13.5 1.625C11.2623 1.625 9.11614 2.48102 7.53381 4.00476C5.95147 5.52849 5.06252 7.59512 5.06252 9.75C5.00546 10.9308 5.24036 12.1078 5.74789 13.1842C6.25543 14.2605 7.02109 15.2055 7.98189 15.9413C8.82564 16.6969 9.28127 17.1275 9.28127 17.875H10.9688C10.9688 16.38 10.0322 15.5431 9.12096 14.7387C8.33235 14.1572 7.70385 13.3984 7.29051 12.5286C6.87716 11.6589 6.69158 10.7048 6.75002 9.75C6.75002 8.02609 7.46118 6.37279 8.72705 5.15381C9.99292 3.93482 11.7098 3.25 13.5 3.25C15.2902 3.25 17.0071 3.93482 18.273 5.15381C19.5389 6.37279 20.25 8.02609 20.25 9.75C20.3075 10.7055 20.1206 11.66 19.7058 12.5298C19.2909 13.3996 18.6608 14.1581 17.8706 14.7387C16.9678 15.5512 16.0313 16.3638 16.0313 17.875H17.7188C17.7188 17.1275 18.166 16.6969 19.0181 15.9331C19.9783 15.1986 20.7436 14.2551 21.2511 13.1801C21.7587 12.1052 21.9939 10.9296 21.9375 9.75C21.9375 8.68301 21.7193 7.62647 21.2953 6.6407C20.8712 5.65493 20.2497 4.75923 19.4662 4.00476C18.6827 3.25028 17.7526 2.6518 16.7289 2.24348C15.7052 1.83516 14.608 1.625 13.5 1.625Z" fill="black"/>
</svg>
