<svg width="17" height="17" viewBox="0 0 17 17" fill="none" xmlns="http://www.w3.org/2000/svg">
<path d="M15.677 16.385L9.415 10.123C8.915 10.549 8.34 10.8787 7.69 11.112C7.04 11.3453 6.38667 11.462 5.73 11.462C4.12867 11.462 2.77333 10.9077 1.664 9.799C0.554667 8.69034 0 7.33534 0 5.734C0 4.13267 0.554 2.777 1.662 1.667C2.77 0.557002 4.12467 0.00133573 5.726 2.39808e-06C7.32733 -0.00133094 8.68333 0.553336 9.794 1.664C10.9047 2.77467 11.4603 4.13034 11.461 5.731C11.461 6.42567 11.338 7.098 11.092 7.748C10.846 8.398 10.5227 8.954 10.122 9.416L16.384 15.677L15.677 16.385ZM5.73 10.461C7.05667 10.461 8.177 10.0043 9.091 9.091C10.005 8.17767 10.4617 7.05734 10.461 5.73C10.4603 4.40267 10.0037 3.28267 9.091 2.37C8.17833 1.45734 7.05833 1.00067 5.731 1C4.40367 0.999336 3.28333 1.456 2.37 2.37C1.45667 3.284 1 4.404 1 5.73C1 7.056 1.45667 8.176 2.37 9.09C3.28333 10.004 4.40333 10.4617 5.73 10.461Z" fill="black"/>
</svg>
