<svg width="28" height="28" viewBox="0 0 28 28" fill="none" xmlns="http://www.w3.org/2000/svg">
<path d="M12 20.1194H20M18 9.11941L19 10.1194M19.5 6.61941C19.697 6.81637 19.8533 7.05021 19.9599 7.30759C20.0666 7.56496 20.1215 7.84082 20.1215 8.11941C20.1215 8.39799 20.0666 8.67385 19.9599 8.93123C19.8533 9.1886 19.697 9.42245 19.5 9.61941L10 19.1194L6 20.1194L7 16.1754L16.504 6.62341C16.8786 6.24698 17.3811 6.02517 17.9116 6.00201C18.4422 5.97886 18.962 6.15605 19.368 6.49841L19.5 6.61941Z" stroke="black" stroke-linecap="round" stroke-linejoin="round"/>
<circle cx="14" cy="14" r="14" fill="#D9D9D9" fill-opacity="0.21"/>
</svg>
